<svg xmlns:xlink="http://www.w3.org/1999/xlink" xmlns="http://www.w3.org/2000/svg" width="68" height="54" viewBox="0 0 68 54" fill="none">
<g id="Vector">
<path d="M28.6629 27.0226C28.6629 24.9791 27.7044 24.1834 26.4567 23.4239L25.4801 22.8271C24.811 22.4293 24.4855 22.0134 24.4855 21.1996C24.4855 20.4943 24.7206 20.2231 25.1185 20.2231C25.5706 20.2231 25.7876 20.5667 25.7695 22.0315H27.8672C28.1204 22.0315 28.265 21.8868 28.265 21.6155C28.265 19.4816 27.5236 18.3062 26.0769 17.9807V16.3893C26.0769 16.1361 25.9322 15.9915 25.6791 15.9915H24.1962V17.9626C22.6229 18.3243 21.7187 19.6625 21.7187 21.4889C21.7187 23.6771 22.6952 24.4909 23.6356 25.1057L24.5036 25.6663C25.3897 26.2269 25.7333 26.6971 25.7333 27.4747C25.7333 28.18 25.444 28.4693 25.0642 28.4693C24.5036 28.4693 24.2143 28.1076 24.2143 26.3897H22.008C21.7549 26.3897 21.6102 26.5343 21.6102 26.8056C21.6102 29.1565 22.5325 30.4766 24.1962 30.8021V32.3754C24.1962 32.6286 24.3408 32.7733 24.594 32.7733H26.0769V30.8021C27.7044 30.4404 28.6629 29.0842 28.6629 27.0226Z" fill="black"/>
<path d="M36.7964 15.4354H29.9174V19.6195C29.9174 20.1159 30.2011 20.3996 30.6975 20.3996H31.974V39.4763C31.974 39.9727 32.2577 40.2564 32.7541 40.2564H37.5765V16.2155C37.5765 15.7191 37.2928 15.4354 36.7964 15.4354Z" fill="black"/>
<path fill-rule="evenodd" clip-rule="evenodd" d="M4.42402 6.70924V48.2595C14.4602 50.7386 23.9339 49.2377 33.8062 47.6525L33.9375 47.6314C43.4292 46.1073 53.2942 44.5232 63.817 46.9048V5.35451C53.7808 2.87544 44.3072 4.37634 34.4348 5.96151L34.3036 5.98259C24.8119 7.50674 14.9468 9.09083 4.42402 6.70924ZM34.0273 2.43568C44.1837 0.80477 54.7491 -0.891823 66.0685 2.28149L67.3629 2.64435V51.5164L65.1132 50.8882C54.5487 47.9385 44.6626 49.5006 34.3684 51.1535L34.2137 51.1783C24.0574 52.8092 13.492 54.5058 2.17252 51.3325L0.878174 50.9696V2.09765L3.12789 2.7258C13.6924 5.67553 23.5784 4.11343 33.8727 2.46051L34.0273 2.43568Z" fill="black"/>
</g>
</svg>